<svg xmlns="http://www.w3.org/2000/svg" viewBox="0 0 1200 200" preserveAspectRatio="xMidYMax slice">
  <g fill="#ffffff">
    <polygon points="50,200 90,120 70,120 110,60 90,60 130,0 170,60 150,60 190,120 170,120 210,200"></polygon>
    <polygon points="250,200 290,120 270,120 310,60 290,60 330,0 370,60 350,60 390,120 370,120 410,200"></polygon>
    <polygon points="450,200 490,120 470,120 510,60 490,60 530,0 570,60 550,60 590,120 570,120 610,200"></polygon>
    <polygon points="650,200 690,120 670,120 710,60 690,60 730,0 770,60 750,60 790,120 770,120 810,200"></polygon>
    <polygon points="850,200 890,120 870,120 910,60 890,60 930,0 970,60 950,60 990,120 970,120 1010,200"></polygon>
  </g>
</svg>
